<svg width="1672" height="1030" viewBox="0 0 1672 1030" fill="none" xmlns="http://www.w3.org/2000/svg">
<g clip-path="url(#clip0_360_20)">
<path d="M1373 54C1373 82.7188 1396.28 106 1425 106H1577C1627.26 106 1668 146.742 1668 197V979C1668 1008.27 1644.27 1032 1615 1032H53C23.7289 1032 0 1008.27 0 979V187C0 136.742 40.7421 96 91 96H248C273.957 96 295 74.9574 295 49C295 23.0426 316.043 2 342 2H1321C1349.72 2 1373 25.2812 1373 54Z" fill="#215BDB"/>
<path d="M836 -537.5C1089.18 -537.5 1318.36 -497.884 1484.24 -433.85C1567.18 -401.832 1634.26 -363.719 1680.6 -321.424C1726.94 -279.128 1752.5 -232.689 1752.5 -184C1752.5 -135.311 1726.94 -88.8716 1680.6 -46.5762C1634.26 -4.28065 1567.18 33.832 1484.24 65.8496C1318.36 129.884 1089.18 169.5 836 169.5C582.823 169.5 353.636 129.884 187.763 65.8496C104.824 33.832 37.7403 -4.28065 -8.60059 -46.5762C-54.9413 -88.8716 -80.5 -135.311 -80.5 -184C-80.5 -232.689 -54.9413 -279.128 -8.60059 -321.424C37.7403 -363.719 104.824 -401.832 187.763 -433.85C353.636 -497.884 582.823 -537.5 836 -537.5Z" stroke="white" stroke-opacity="0.1"/>
<path d="M836 -650.5C1170.09 -650.5 1472.52 -598.235 1691.42 -513.752C1800.87 -471.51 1889.41 -421.223 1950.58 -365.408C2011.74 -309.594 2045.5 -248.291 2045.5 -184C2045.5 -119.709 2011.74 -58.4064 1950.58 -2.5918C1889.41 53.223 1800.87 103.51 1691.42 145.752C1472.52 230.235 1170.09 282.5 836 282.5C501.913 282.5 199.477 230.235 -19.4189 145.752C-128.869 103.51 -217.408 53.223 -278.575 -2.5918C-339.743 -58.4064 -373.5 -119.709 -373.5 -184C-373.5 -248.291 -339.743 -309.594 -278.575 -365.408C-217.408 -421.223 -128.869 -471.51 -19.4189 -513.752C199.477 -598.235 501.913 -650.5 836 -650.5Z" stroke="white" stroke-opacity="0.1"/>
<path d="M841 -803.5C1283.06 -803.5 1683.24 -734.334 1972.9 -622.525C2117.73 -566.62 2234.9 -500.065 2315.85 -426.185C2396.8 -352.305 2441.5 -271.139 2441.5 -186C2441.5 -100.861 2396.8 -19.6954 2315.85 54.1846C2234.9 128.065 2117.73 194.62 1972.9 250.525C1683.24 362.334 1283.06 431.5 841 431.5C398.942 431.5 -1.24421 362.334 -290.897 250.525C-435.726 194.62 -552.895 128.065 -633.849 54.1846C-714.802 -19.6954 -759.5 -100.861 -759.5 -186C-759.5 -271.139 -714.802 -352.305 -633.849 -426.185C-552.895 -500.065 -435.726 -566.62 -290.897 -622.525C-1.24421 -734.334 398.942 -803.5 841 -803.5Z" stroke="white" stroke-opacity="0.1"/>
<rect x="-40.4688" y="555.105" width="1179.75" height="417.934" transform="rotate(25 -40.4688 555.105)" fill="#FEA200"/>
</g>
<defs>
<clipPath id="clip0_360_20">
<rect width="1672" height="1030" rx="53" fill="white"/>
</clipPath>
</defs>
</svg>
