<svg width="1668" height="1030" viewBox="0 0 1668 1030" fill="none" xmlns="http://www.w3.org/2000/svg">
<g clip-path="url(#clip0_360_20)">
<path d="M1368 54C1368 82.7188 1391.28 106 1420 106H1572C1622.26 106 1663 146.742 1663 197V979C1663 1008.27 1639.27 1032 1610 1032H48C18.7289 1032 -5 1008.27 -5 979V187C-5 136.742 35.7421 96 86 96H243C268.957 96 290 74.9574 290 49C290 23.0426 311.043 2 337 2H1316C1344.72 2 1368 25.2812 1368 54Z" fill="#215BDB"/>
<path d="M831 -537.5C1084.18 -537.5 1313.36 -497.884 1479.24 -433.85C1562.18 -401.832 1629.26 -363.719 1675.6 -321.424C1721.94 -279.128 1747.5 -232.689 1747.5 -184C1747.5 -135.311 1721.94 -88.8716 1675.6 -46.5762C1629.26 -4.28065 1562.18 33.832 1479.24 65.8496C1313.36 129.884 1084.18 169.5 831 169.5C577.823 169.5 348.636 129.884 182.763 65.8496C99.8245 33.832 32.7403 -4.28065 -13.6006 -46.5762C-59.9413 -88.8716 -85.5 -135.311 -85.5 -184C-85.5 -232.689 -59.9413 -279.128 -13.6006 -321.424C32.7403 -363.719 99.8245 -401.832 182.763 -433.85C348.636 -497.884 577.823 -537.5 831 -537.5Z" stroke="white" stroke-opacity="0.1"/>
<path d="M831 -650.5C1165.09 -650.5 1467.52 -598.235 1686.42 -513.752C1795.87 -471.51 1884.41 -421.223 1945.58 -365.408C2006.74 -309.594 2040.5 -248.291 2040.5 -184C2040.5 -119.709 2006.74 -58.4064 1945.58 -2.5918C1884.41 53.223 1795.87 103.51 1686.42 145.752C1467.52 230.235 1165.09 282.5 831 282.5C496.913 282.5 194.477 230.235 -24.4189 145.752C-133.869 103.51 -222.408 53.223 -283.575 -2.5918C-344.743 -58.4064 -378.5 -119.709 -378.5 -184C-378.5 -248.291 -344.743 -309.594 -283.575 -365.408C-222.408 -421.223 -133.869 -471.51 -24.4189 -513.752C194.477 -598.235 496.913 -650.5 831 -650.5Z" stroke="white" stroke-opacity="0.1"/>
<path d="M836 -803.5C1278.06 -803.5 1678.24 -734.334 1967.9 -622.525C2112.73 -566.62 2229.9 -500.065 2310.85 -426.185C2391.8 -352.305 2436.5 -271.139 2436.5 -186C2436.5 -100.861 2391.8 -19.6954 2310.85 54.1846C2229.9 128.065 2112.73 194.62 1967.9 250.525C1678.24 362.334 1278.06 431.5 836 431.5C393.942 431.5 -6.24421 362.334 -295.897 250.525C-440.726 194.62 -557.895 128.065 -638.849 54.1846C-719.802 -19.6954 -764.5 -100.861 -764.5 -186C-764.5 -271.139 -719.802 -352.305 -638.849 -426.185C-557.895 -500.065 -440.726 -566.62 -295.897 -622.525C-6.24421 -734.334 393.942 -803.5 836 -803.5Z" stroke="white" stroke-opacity="0.1"/>
<rect x="-45.4688" y="555.105" width="1179.75" height="417.934" transform="rotate(25 -45.4688 555.105)" fill="#FEA200"/>
</g>
<defs>
<clipPath id="clip0_360_20">
<rect width="1668" height="1030" rx="53" fill="white"/>
</clipPath>
</defs>
</svg>
