<svg width="1668" height="880" viewBox="0 0 1668 880" fill="none" xmlns="http://www.w3.org/2000/svg">
<g clip-path="url(#clip0_890_24)">
<path d="M1373 52C1373 80.7188 1396.28 104 1425 104H1577C1627.26 104 1668 144.742 1668 195V827C1668 856.271 1644.27 880 1615 880H53C23.7289 880 1.03095e-06 856.271 0 827V185C0 134.742 40.7421 94 91 94H248C273.957 94 295 72.9574 295 47C295 21.0426 316.043 0 342 0H1321C1349.72 0 1373 23.2812 1373 52Z" fill="#215BDB"/>
<path d="M836 -571.5C1058.25 -571.5 1259.44 -536.752 1405.04 -480.59C1477.85 -452.508 1536.73 -419.083 1577.4 -381.991C1618.08 -344.9 1640.5 -304.182 1640.5 -261.5C1640.5 -218.818 1618.08 -178.1 1577.4 -141.009C1536.73 -103.917 1477.85 -70.4919 1405.04 -42.4102C1259.44 13.752 1058.25 48.5 836 48.5C613.751 48.5 412.565 13.752 266.959 -42.4102C194.155 -70.4919 135.271 -103.917 94.5977 -141.009C53.9244 -178.1 31.5 -218.818 31.5 -261.5C31.5 -304.182 53.9244 -344.9 94.5977 -381.991C135.271 -419.083 194.155 -452.508 266.959 -480.59C412.565 -536.752 613.751 -571.5 836 -571.5Z" stroke="white" stroke-opacity="0.1"/>
<path d="M836 -670.5C1129.22 -670.5 1394.65 -624.671 1586.77 -550.594C1682.83 -513.554 1760.53 -469.462 1814.21 -420.526C1867.88 -371.591 1897.5 -317.851 1897.5 -261.5C1897.5 -205.149 1867.88 -151.409 1814.21 -102.474C1760.53 -53.538 1682.83 -9.44572 1586.77 27.5938C1394.65 101.671 1129.22 147.5 836 147.5C542.782 147.5 277.346 101.671 85.2324 27.5938C-10.826 -9.44572 -88.5277 -53.538 -142.206 -102.474C-195.884 -151.409 -225.5 -205.149 -225.5 -261.5C-225.5 -317.851 -195.884 -371.591 -142.206 -420.526C-88.5277 -469.462 -10.826 -513.554 85.2324 -550.594C277.346 -624.671 542.782 -670.5 836 -670.5Z" stroke="white" stroke-opacity="0.1"/>
<path d="M836 -803.5C1223.93 -803.5 1575.12 -742.785 1829.3 -644.639C1956.4 -595.565 2059.22 -537.143 2130.25 -472.296C2201.29 -407.449 2240.5 -336.215 2240.5 -261.5C2240.5 -186.785 2201.29 -115.551 2130.25 -50.7041C2059.22 14.1433 1956.4 72.5651 1829.3 121.639C1575.12 219.785 1223.93 280.5 836 280.5C448.066 280.5 96.8795 219.785 -157.305 121.639C-284.398 72.5651 -387.216 14.1433 -458.251 -50.7041C-529.286 -115.551 -568.5 -186.785 -568.5 -261.5C-568.5 -336.215 -529.286 -407.449 -458.251 -472.296C-387.216 -537.143 -284.398 -595.565 -157.305 -644.639C96.8795 -742.785 448.066 -803.5 836 -803.5Z" stroke="white" stroke-opacity="0.1"/>
<rect x="-39.0078" y="514.783" width="874.946" height="309.956" transform="rotate(25 -39.0078 514.783)" fill="#FEA200"/>
</g>
<defs>
<clipPath id="clip0_890_24">
<rect width="1668" height="880" rx="53" fill="white"/>
</clipPath>
</defs>
</svg>
