<svg width="374" height="828" viewBox="0 0 374 828" fill="none" xmlns="http://www.w3.org/2000/svg">
<mask id="path-1-outside-1_360_764" maskUnits="userSpaceOnUse" x="21" y="271" width="90" height="557" fill="black">
<rect fill="white" x="21" y="271" width="90" height="557"/>
<path d="M24.24 707.76L108 731.16V750.96L48.36 766.68L108 783.12L108.12 802.8L24.24 825.36V807.36L89.28 792.6L24.24 775.56V756.84L88.92 740.76L24.24 725.88V707.76ZM92.04 639.43V672.79L108 678.31V695.95L24.12 665.83V646.27L108 616.15V633.91L92.04 639.43ZM78.6 643.99L43.56 656.11L78.6 668.23V643.99ZM24.24 532.292L78.84 560.612H108V577.412H78.84L24.24 605.852V586.892L62.52 568.892L24.24 551.012V532.292ZM108.84 477.723C108.84 485.563 107 492.763 103.32 499.323C99.64 505.883 94.56 511.083 88.08 514.923C81.52 518.763 74.12 520.683 65.88 520.683C57.72 520.683 50.4 518.763 43.92 514.923C37.36 511.083 32.24 505.883 28.56 499.323C24.88 492.763 23.04 485.563 23.04 477.723C23.04 469.803 24.88 462.603 28.56 456.123C32.24 449.563 37.36 444.403 43.92 440.643C50.4 436.803 57.72 434.883 65.88 434.883C74.12 434.883 81.52 436.803 88.08 440.643C94.56 444.403 99.64 449.563 103.32 456.123C107 462.683 108.84 469.883 108.84 477.723ZM93.84 477.723C93.84 472.683 92.72 468.243 90.48 464.403C88.16 460.563 84.88 457.563 80.64 455.403C76.4 453.243 71.48 452.163 65.88 452.163C60.28 452.163 55.4 453.243 51.24 455.403C47 457.563 43.76 460.563 41.52 464.403C39.28 468.243 38.16 472.683 38.16 477.723C38.16 482.763 39.28 487.243 41.52 491.163C43.76 495.003 47 498.003 51.24 500.163C55.4 502.323 60.28 503.403 65.88 503.403C71.48 503.403 76.4 502.323 80.64 500.163C84.88 498.003 88.16 495.003 90.48 491.163C92.72 487.243 93.84 482.763 93.84 477.723ZM108 344.744V361.544L50.52 399.584H108V416.384H24.12V399.584L81.72 361.544H24.12V344.744H108ZM37.8 305.342H58.8V277.142H72.12V305.342H94.32V273.542H108V322.142H24.12L24.12 273.542H37.8V305.342Z"/>
</mask>
<path d="M24.24 707.76L24.7781 705.834L22.24 705.125V707.76H24.24ZM108 731.16H110V729.642L108.538 729.234L108 731.16ZM108 750.96L108.51 752.894L110 752.501V750.96H108ZM48.36 766.68L47.8502 764.746L40.6771 766.637L47.8285 768.608L48.36 766.68ZM108 783.12L110 783.108L109.991 781.594L108.531 781.192L108 783.12ZM108.12 802.8L108.639 804.731L110.129 804.331L110.12 802.788L108.12 802.8ZM24.24 825.36H22.24V827.969L24.7594 827.291L24.24 825.36ZM24.24 807.36L23.7974 805.41L22.24 805.763V807.36H24.24ZM89.28 792.6L89.7226 794.55L89.7869 790.665L89.28 792.6ZM24.24 775.56H22.24V777.104L23.7331 777.495L24.24 775.56ZM24.24 756.84L23.7575 754.899L22.24 755.276V756.84H24.24ZM88.92 740.76L89.4025 742.701L89.3684 738.811L88.92 740.76ZM24.24 725.88H22.24V727.472L23.7916 727.829L24.24 725.88ZM24.24 707.76L23.7019 709.686L107.462 733.086L108 731.16L108.538 729.234L24.7781 705.834L24.24 707.76ZM108 731.16H106V750.96H108H110V731.16H108ZM108 750.96L107.49 749.026L47.8502 764.746L48.36 766.68L48.8698 768.614L108.51 752.894L108 750.96ZM48.36 766.68L47.8285 768.608L107.469 785.048L108 783.12L108.531 781.192L48.8915 764.752L48.36 766.68ZM108 783.12L106 783.132L106.12 802.812L108.12 802.8L110.12 802.788L110 783.108L108 783.12ZM108.12 802.8L107.601 800.869L23.7205 823.429L24.24 825.36L24.7594 827.291L108.639 804.731L108.12 802.8ZM24.24 825.36H26.24V807.36H24.24H22.24V825.36H24.24ZM24.24 807.36L24.6826 809.31L89.7226 794.55L89.28 792.6L88.8374 790.65L23.7974 805.41L24.24 807.36ZM89.28 792.6L89.7869 790.665L24.7469 773.625L24.24 775.56L23.7331 777.495L88.7731 794.535L89.28 792.6ZM24.24 775.56H26.24V756.84H24.24H22.24V775.56H24.24ZM24.24 756.84L24.7225 758.781L89.4025 742.701L88.92 740.76L88.4375 738.819L23.7575 754.899L24.24 756.84ZM88.92 740.76L89.3684 738.811L24.6884 723.931L24.24 725.88L23.7916 727.829L88.4716 742.709L88.92 740.76ZM24.24 725.88H26.24V707.76H24.24H22.24V725.88H24.24ZM92.04 639.43L91.3863 637.54L90.04 638.006V639.43H92.04ZM92.04 672.79H90.04V674.215L91.3863 674.68L92.04 672.79ZM108 678.31H110V676.886L108.654 676.42L108 678.31ZM108 695.95L107.324 697.833L110 698.794V695.95H108ZM24.12 665.83H22.12V667.237L23.4441 667.713L24.12 665.83ZM24.12 646.27L23.4441 644.388L22.12 644.863V646.27H24.12ZM108 616.15H110V613.307L107.324 614.268L108 616.15ZM108 633.91L108.654 635.8L110 635.335V633.91H108ZM78.6 643.99H80.6V641.182L77.9462 642.1L78.6 643.99ZM43.56 656.11L42.9062 654.22L37.4417 656.11L42.9062 658L43.56 656.11ZM78.6 668.23L77.9462 670.12L80.6 671.038V668.23H78.6ZM92.04 639.43H90.04V672.79H92.04H94.04V639.43H92.04ZM92.04 672.79L91.3863 674.68L107.346 680.2L108 678.31L108.654 676.42L92.6937 670.9L92.04 672.79ZM108 678.31H106V695.95H108H110V678.31H108ZM108 695.95L108.676 694.068L24.7959 663.948L24.12 665.83L23.4441 667.713L107.324 697.833L108 695.95ZM24.12 665.83H26.12V646.27H24.12H22.12V665.83H24.12ZM24.12 646.27L24.7959 648.153L108.676 618.033L108 616.15L107.324 614.268L23.4441 644.388L24.12 646.27ZM108 616.15H106V633.91H108H110V616.15H108ZM108 633.91L107.346 632.02L91.3863 637.54L92.04 639.43L92.6937 641.32L108.654 635.8L108 633.91ZM78.6 643.99L77.9462 642.1L42.9062 654.22L43.56 656.11L44.2138 658L79.2538 645.88L78.6 643.99ZM43.56 656.11L42.9062 658L77.9462 670.12L78.6 668.23L79.2538 666.34L44.2138 654.22L43.56 656.11ZM78.6 668.23H80.6V643.99H78.6H76.6V668.23H78.6ZM24.24 532.292L25.1609 530.516L22.24 529.001V532.292H24.24ZM78.84 560.612L77.9191 562.387L78.3522 562.612H78.84V560.612ZM108 560.612H110V558.612H108V560.612ZM108 577.412V579.412H110V577.412H108ZM78.84 577.412V575.412H78.3503L77.9161 575.638L78.84 577.412ZM24.24 605.852H22.24V609.149L25.1639 607.626L24.24 605.852ZM24.24 586.892L23.389 585.082L22.24 585.622V586.892H24.24ZM62.52 568.892L63.371 570.702L67.233 568.886L63.3664 567.08L62.52 568.892ZM24.24 551.012H22.24V552.285L23.3936 552.824L24.24 551.012ZM24.24 532.292L23.3191 534.067L77.9191 562.387L78.84 560.612L79.7609 558.836L25.1609 530.516L24.24 532.292ZM78.84 560.612V562.612H108V560.612V558.612H78.84V560.612ZM108 560.612H106V577.412H108H110V560.612H108ZM108 577.412V575.412H78.84V577.412V579.412H108V577.412ZM78.84 577.412L77.9161 575.638L23.3161 604.078L24.24 605.852L25.1639 607.626L79.7639 579.186L78.84 577.412ZM24.24 605.852H26.24V586.892H24.24H22.24V605.852H24.24ZM24.24 586.892L25.091 588.702L63.371 570.702L62.52 568.892L61.669 567.082L23.389 585.082L24.24 586.892ZM62.52 568.892L63.3664 567.08L25.0864 549.2L24.24 551.012L23.3936 552.824L61.6736 570.704L62.52 568.892ZM24.24 551.012H26.24V532.292H24.24H22.24V551.012H24.24ZM103.32 499.323L101.576 498.344L103.32 499.323ZM88.08 514.923L89.0904 516.649L89.0996 516.643L88.08 514.923ZM43.92 514.923L44.9396 513.202L44.9304 513.197L43.92 514.923ZM28.56 499.323L26.8157 500.301L28.56 499.323ZM28.56 456.123L30.2991 457.11L30.3043 457.101L28.56 456.123ZM43.92 440.643L44.9146 442.378L44.9271 442.371L44.9396 442.363L43.92 440.643ZM88.08 440.643L87.0696 442.369L87.0762 442.373L88.08 440.643ZM103.32 456.123L101.576 457.101L103.32 456.123ZM90.48 464.403L92.2076 463.395L92.1998 463.382L92.1918 463.369L90.48 464.403ZM80.64 455.403L81.5479 453.621L80.64 455.403ZM51.24 455.403L52.1479 457.185L52.1548 457.181L52.1616 457.178L51.24 455.403ZM41.52 464.403L43.2476 465.411L41.52 464.403ZM41.52 491.163L39.7835 492.155L39.7879 492.163L39.7924 492.171L41.52 491.163ZM51.24 500.163L52.1616 498.388L52.1548 498.384L52.1479 498.381L51.24 500.163ZM80.64 500.163L79.7321 498.381L80.64 500.163ZM90.48 491.163L92.1918 492.197L92.2044 492.176L92.2165 492.155L90.48 491.163ZM108.84 477.723H106.84C106.84 485.235 105.081 492.096 101.576 498.344L103.32 499.323L105.064 500.301C108.919 493.43 110.84 485.89 110.84 477.723H108.84ZM103.32 499.323L101.576 498.344C98.0681 504.597 93.2382 509.541 87.0604 513.202L88.08 514.923L89.0996 516.643C95.8818 512.624 101.212 507.169 105.064 500.301L103.32 499.323ZM88.08 514.923L87.0696 513.197C80.8417 516.842 73.7957 518.683 65.88 518.683V520.683V522.683C74.4443 522.683 82.1983 520.683 89.0904 516.649L88.08 514.923ZM65.88 520.683V518.683C58.0479 518.683 51.0854 516.844 44.9396 513.202L43.92 514.923L42.9004 516.643C49.7146 520.681 57.3921 522.683 65.88 522.683V520.683ZM43.92 514.923L44.9304 513.197C38.6737 509.534 33.8085 504.591 30.3043 498.344L28.56 499.323L26.8157 500.301C30.6715 507.175 36.0463 512.631 42.9096 516.649L43.92 514.923ZM28.56 499.323L30.3043 498.344C26.7992 492.096 25.04 485.235 25.04 477.723H23.04H21.04C21.04 485.89 22.9608 493.43 26.8157 500.301L28.56 499.323ZM23.04 477.723H25.04C25.04 470.127 26.8009 463.27 30.2991 457.11L28.56 456.123L26.8209 455.135C22.9591 461.935 21.04 469.479 21.04 477.723H23.04ZM28.56 456.123L30.3043 457.101C33.8064 450.858 38.6665 445.959 44.9146 442.378L43.92 440.643L42.9254 438.908C36.0535 442.846 30.6736 448.267 26.8157 455.144L28.56 456.123ZM43.92 440.643L44.9396 442.363C51.0854 438.721 58.0479 436.883 65.88 436.883V434.883V432.883C57.3921 432.883 49.7146 434.884 42.9004 438.922L43.92 440.643ZM65.88 434.883V436.883C73.7957 436.883 80.8417 438.723 87.0696 442.369L88.08 440.643L89.0904 438.917C82.1983 434.882 74.4443 432.883 65.88 432.883V434.883ZM88.08 440.643L87.0762 442.373C93.2453 445.952 98.0701 450.852 101.576 457.101L103.32 456.123L105.064 455.144C101.21 448.273 95.8747 442.853 89.0838 438.913L88.08 440.643ZM103.32 456.123L101.576 457.101C105.081 463.35 106.84 470.21 106.84 477.723H108.84H110.84C110.84 469.555 108.919 462.016 105.064 455.144L103.32 456.123ZM93.84 477.723H95.84C95.84 472.377 94.6488 467.58 92.2076 463.395L90.48 464.403L88.7524 465.411C90.7912 468.906 91.84 472.989 91.84 477.723H93.84ZM90.48 464.403L92.1918 463.369C89.667 459.19 86.0993 455.939 81.5479 453.621L80.64 455.403L79.7321 457.185C83.6607 459.186 86.653 461.936 88.7682 465.437L90.48 464.403ZM80.64 455.403L81.5479 453.621C76.981 451.294 71.7399 450.163 65.88 450.163V452.163V454.163C71.2201 454.163 75.819 455.191 79.7321 457.185L80.64 455.403ZM65.88 452.163V450.163C60.0213 450.163 54.8135 451.294 50.3184 453.628L51.24 455.403L52.1616 457.178C55.9865 455.192 60.5387 454.163 65.88 454.163V452.163ZM51.24 455.403L50.3321 453.621C45.7755 455.942 42.2395 459.2 39.7924 463.395L41.52 464.403L43.2476 465.411C45.2805 461.926 48.2245 459.184 52.1479 457.185L51.24 455.403ZM41.52 464.403L39.7924 463.395C37.3512 467.58 36.16 472.377 36.16 477.723H38.16H40.16C40.16 472.989 41.2088 468.906 43.2476 465.411L41.52 464.403ZM38.16 477.723H36.16C36.16 483.069 37.3514 487.899 39.7835 492.155L41.52 491.163L43.2565 490.171C41.2086 486.587 40.16 482.456 40.16 477.723H38.16ZM41.52 491.163L39.7924 492.171C42.2395 496.366 45.7755 499.624 50.3321 501.945L51.24 500.163L52.1479 498.381C48.2245 496.382 45.2805 493.64 43.2476 490.155L41.52 491.163ZM51.24 500.163L50.3184 501.938C54.8135 504.272 60.0213 505.403 65.88 505.403V503.403V501.403C60.5387 501.403 55.9865 500.374 52.1616 498.388L51.24 500.163ZM65.88 503.403V505.403C71.7399 505.403 76.981 504.271 81.5479 501.945L80.64 500.163L79.7321 498.381C75.819 500.374 71.2201 501.403 65.88 501.403V503.403ZM80.64 500.163L81.5479 501.945C86.0993 499.626 89.667 496.376 92.1918 492.197L90.48 491.163L88.7682 490.129C86.653 493.63 83.6607 496.379 79.7321 498.381L80.64 500.163ZM90.48 491.163L92.2165 492.155C94.6486 487.899 95.84 483.069 95.84 477.723H93.84H91.84C91.84 482.456 90.7914 486.587 88.7435 490.171L90.48 491.163ZM108 344.744H110V342.744H108V344.744ZM108 361.544L109.104 363.212L110 362.619V361.544H108ZM50.52 399.584L49.4162 397.916L43.874 401.584H50.52V399.584ZM108 399.584H110V397.584H108V399.584ZM108 416.384V418.384H110V416.384H108ZM24.12 416.384H22.12V418.384H24.12V416.384ZM24.12 399.584L23.0178 397.915L22.12 398.508V399.584H24.12ZM81.72 361.544L82.8222 363.213L88.3776 359.544H81.72V361.544ZM24.12 361.544H22.12V363.544H24.12V361.544ZM24.12 344.744V342.744H22.12V344.744H24.12ZM108 344.744H106V361.544H108H110V344.744H108ZM108 361.544L106.896 359.876L49.4162 397.916L50.52 399.584L51.6238 401.252L109.104 363.212L108 361.544ZM50.52 399.584V401.584H108V399.584V397.584H50.52V399.584ZM108 399.584H106V416.384H108H110V399.584H108ZM108 416.384V414.384H24.12V416.384V418.384H108V416.384ZM24.12 416.384H26.12V399.584H24.12H22.12V416.384H24.12ZM24.12 399.584L25.2222 401.253L82.8222 363.213L81.72 361.544L80.6178 359.875L23.0178 397.915L24.12 399.584ZM81.72 361.544V359.544H24.12V361.544V363.544H81.72V361.544ZM24.12 361.544H26.12V344.744H24.12H22.12V361.544H24.12ZM24.12 344.744V346.744H108V344.744V342.744H24.12V344.744ZM37.8 305.342H35.8L35.8 307.342H37.8L37.8 305.342ZM58.8 305.342L58.8 307.342H60.8L60.8 305.342H58.8ZM58.8 277.142V275.142H56.8V277.142H58.8ZM72.12 277.142H74.12V275.142H72.12V277.142ZM72.12 305.342H70.12V307.342H72.12V305.342ZM94.32 305.342V307.342H96.32V305.342H94.32ZM94.32 273.542V271.542H92.32V273.542H94.32ZM108 273.542H110V271.542H108V273.542ZM108 322.142V324.142H110V322.142H108ZM24.12 322.142H22.12V324.142H24.12V322.142ZM24.12 273.542V271.542H22.12V273.542H24.12ZM37.8 273.542H39.8V271.542H37.8V273.542ZM37.8 305.342L37.8 307.342H58.8L58.8 305.342V303.342H37.8V305.342ZM58.8 305.342H60.8V277.142H58.8H56.8V305.342H58.8ZM58.8 277.142V279.142H72.12V277.142V275.142H58.8V277.142ZM72.12 277.142H70.12V305.342H72.12H74.12V277.142H72.12ZM72.12 305.342V307.342H94.32V305.342V303.342H72.12V305.342ZM94.32 305.342H96.32V273.542H94.32H92.32V305.342H94.32ZM94.32 273.542V275.542H108V273.542V271.542H94.32V273.542ZM108 273.542H106V322.142H108H110V273.542H108ZM108 322.142V320.142H24.12V322.142V324.142H108V322.142ZM24.12 322.142H26.12L26.12 273.542H24.12H22.12L22.12 322.142H24.12ZM24.12 273.542V275.542H37.8V273.542V271.542H24.12V273.542ZM37.8 273.542H35.8V305.342H37.8H39.8V273.542H37.8Z" fill="white" mask="url(#path-1-outside-1_360_764)"/>
<mask id="path-3-outside-2_360_764" maskUnits="userSpaceOnUse" x="22" y="27" width="89" height="215" fill="black">
<rect fill="white" x="22" y="27" width="89" height="215"/>
<path d="M24.24 121.76L108 145.16V164.96L48.36 180.68L108 197.12L108.12 216.8L24.24 239.36V221.36L89.28 206.6L24.24 189.56V170.84L88.92 154.76L24.24 139.88V121.76ZM92.04 53.4303V86.7903L108 92.3103V109.95L24.12 79.8303V60.2703L108 30.1503V47.9103L92.04 53.4303ZM78.6 57.9903L43.56 70.1103L78.6 82.2303V57.9903Z"/>
</mask>
<path d="M24.24 121.76L24.7781 119.834L22.24 119.125V121.76H24.24ZM108 145.16H110V143.642L108.538 143.234L108 145.16ZM108 164.96L108.51 166.894L110 166.501V164.96H108ZM48.36 180.68L47.8502 178.746L40.6771 180.637L47.8285 182.608L48.36 180.68ZM108 197.12L110 197.108L109.991 195.594L108.531 195.192L108 197.12ZM108.12 216.8L108.639 218.731L110.129 218.331L110.12 216.788L108.12 216.8ZM24.24 239.36H22.24V241.969L24.7594 241.291L24.24 239.36ZM24.24 221.36L23.7974 219.41L22.24 219.763V221.36H24.24ZM89.28 206.6L89.7226 208.55L89.7869 204.665L89.28 206.6ZM24.24 189.56H22.24V191.104L23.7331 191.495L24.24 189.56ZM24.24 170.84L23.7575 168.899L22.24 169.276V170.84H24.24ZM88.92 154.76L89.4025 156.701L89.3684 152.811L88.92 154.76ZM24.24 139.88H22.24V141.472L23.7916 141.829L24.24 139.88ZM24.24 121.76L23.7019 123.686L107.462 147.086L108 145.16L108.538 143.234L24.7781 119.834L24.24 121.76ZM108 145.16H106V164.96H108H110V145.16H108ZM108 164.96L107.49 163.026L47.8502 178.746L48.36 180.68L48.8698 182.614L108.51 166.894L108 164.96ZM48.36 180.68L47.8285 182.608L107.469 199.048L108 197.12L108.531 195.192L48.8915 178.752L48.36 180.68ZM108 197.12L106 197.132L106.12 216.812L108.12 216.8L110.12 216.788L110 197.108L108 197.12ZM108.12 216.8L107.601 214.869L23.7205 237.429L24.24 239.36L24.7594 241.291L108.639 218.731L108.12 216.8ZM24.24 239.36H26.24V221.36H24.24H22.24V239.36H24.24ZM24.24 221.36L24.6826 223.31L89.7226 208.55L89.28 206.6L88.8374 204.65L23.7974 219.41L24.24 221.36ZM89.28 206.6L89.7869 204.665L24.7469 187.625L24.24 189.56L23.7331 191.495L88.7731 208.535L89.28 206.6ZM24.24 189.56H26.24V170.84H24.24H22.24V189.56H24.24ZM24.24 170.84L24.7225 172.781L89.4025 156.701L88.92 154.76L88.4375 152.819L23.7575 168.899L24.24 170.84ZM88.92 154.76L89.3684 152.811L24.6884 137.931L24.24 139.88L23.7916 141.829L88.4716 156.709L88.92 154.76ZM24.24 139.88H26.24V121.76H24.24H22.24V139.88H24.24ZM92.04 53.4303L91.3863 51.5402L90.04 52.0058V53.4303H92.04ZM92.04 86.7903H90.04V88.2148L91.3863 88.6805L92.04 86.7903ZM108 92.3103H110V90.8858L108.654 90.4202L108 92.3103ZM108 109.95L107.324 111.833L110 112.794V109.95H108ZM24.12 79.8303H22.12V81.2372L23.4441 81.7126L24.12 79.8303ZM24.12 60.2703L23.4441 58.388L22.12 58.8634V60.2703H24.12ZM108 30.1503H110V27.3071L107.324 28.268L108 30.1503ZM108 47.9103L108.654 49.8004L110 49.3348V47.9103H108ZM78.6 57.9903H80.6V55.1823L77.9462 56.1002L78.6 57.9903ZM43.56 70.1103L42.9062 68.2202L37.4417 70.1103L42.9062 72.0004L43.56 70.1103ZM78.6 82.2303L77.9462 84.1204L80.6 85.0384V82.2303H78.6ZM92.04 53.4303H90.04V86.7903H92.04H94.04V53.4303H92.04ZM92.04 86.7903L91.3863 88.6805L107.346 94.2005L108 92.3103L108.654 90.4202L92.6937 84.9002L92.04 86.7903ZM108 92.3103H106V109.95H108H110V92.3103H108ZM108 109.95L108.676 108.068L24.7959 77.948L24.12 79.8303L23.4441 81.7126L107.324 111.833L108 109.95ZM24.12 79.8303H26.12V60.2703H24.12H22.12V79.8303H24.12ZM24.12 60.2703L24.7959 62.1526L108.676 32.0326L108 30.1503L107.324 28.268L23.4441 58.388L24.12 60.2703ZM108 30.1503H106V47.9103H108H110V30.1503H108ZM108 47.9103L107.346 46.0202L91.3863 51.5402L92.04 53.4303L92.6937 55.3204L108.654 49.8004L108 47.9103ZM78.6 57.9903L77.9462 56.1002L42.9062 68.2202L43.56 70.1103L44.2138 72.0004L79.2538 59.8804L78.6 57.9903ZM43.56 70.1103L42.9062 72.0004L77.9462 84.1204L78.6 82.2303L79.2538 80.3402L44.2138 68.2202L43.56 70.1103ZM78.6 82.2303H80.6V57.9903H78.6H76.6V82.2303H78.6Z" fill="white" fill-opacity="0.4" mask="url(#path-3-outside-2_360_764)"/>
<mask id="path-5-outside-3_360_764" maskUnits="userSpaceOnUse" x="148" y="166" width="90" height="557" fill="black">
<rect fill="white" x="148" y="166" width="90" height="557"/>
<path d="M151.24 602.76L235 626.16V645.96L175.36 661.68L235 678.12L235.12 697.8L151.24 720.36V702.36L216.28 687.6L151.24 670.56V651.84L215.92 635.76L151.24 620.88V602.76ZM219.04 534.43V567.79L235 573.31V590.95L151.12 560.83V541.27L235 511.15V528.91L219.04 534.43ZM205.6 538.99L170.56 551.11L205.6 563.23V538.99ZM151.24 427.292L205.84 455.612H235V472.412H205.84L151.24 500.852V481.892L189.52 463.892L151.24 446.012V427.292ZM235.84 372.723C235.84 380.563 234 387.763 230.32 394.323C226.64 400.883 221.56 406.083 215.08 409.923C208.52 413.763 201.12 415.683 192.88 415.683C184.72 415.683 177.4 413.763 170.92 409.923C164.36 406.083 159.24 400.883 155.56 394.323C151.88 387.763 150.04 380.563 150.04 372.723C150.04 364.803 151.88 357.603 155.56 351.123C159.24 344.563 164.36 339.403 170.92 335.643C177.4 331.803 184.72 329.883 192.88 329.883C201.12 329.883 208.52 331.803 215.08 335.643C221.56 339.403 226.64 344.563 230.32 351.123C234 357.683 235.84 364.883 235.84 372.723ZM220.84 372.723C220.84 367.683 219.72 363.243 217.48 359.403C215.16 355.563 211.88 352.563 207.64 350.403C203.4 348.243 198.48 347.163 192.88 347.163C187.28 347.163 182.4 348.243 178.24 350.403C174 352.563 170.76 355.563 168.52 359.403C166.28 363.243 165.16 367.683 165.16 372.723C165.16 377.763 166.28 382.243 168.52 386.163C170.76 390.003 174 393.003 178.24 395.163C182.4 397.323 187.28 398.403 192.88 398.403C198.48 398.403 203.4 397.323 207.64 395.163C211.88 393.003 215.16 390.003 217.48 386.163C219.72 382.243 220.84 377.763 220.84 372.723ZM235 239.744V256.544L177.52 294.584H235V311.384H151.12V294.584L208.72 256.544H151.12V239.744H235ZM164.8 200.342H185.8V172.142H199.12V200.342H221.32V168.542H235V217.142H151.12V168.542H164.8V200.342Z"/>
</mask>
<path d="M151.24 602.76L151.778 600.834L149.24 600.125V602.76H151.24ZM235 626.16H237V624.642L235.538 624.234L235 626.16ZM235 645.96L235.51 647.894L237 647.501V645.96H235ZM175.36 661.68L174.85 659.746L167.677 661.637L174.829 663.608L175.36 661.68ZM235 678.12L237 678.108L236.991 676.594L235.531 676.192L235 678.12ZM235.12 697.8L235.639 699.731L237.129 699.331L237.12 697.788L235.12 697.8ZM151.24 720.36H149.24V722.969L151.759 722.291L151.24 720.36ZM151.24 702.36L150.797 700.41L149.24 700.763V702.36H151.24ZM216.28 687.6L216.723 689.55L216.787 685.665L216.28 687.6ZM151.24 670.56H149.24V672.104L150.733 672.495L151.24 670.56ZM151.24 651.84L150.757 649.899L149.24 650.276V651.84H151.24ZM215.92 635.76L216.403 637.701L216.368 633.811L215.92 635.76ZM151.24 620.88H149.24V622.472L150.792 622.829L151.24 620.88ZM151.24 602.76L150.702 604.686L234.462 628.086L235 626.16L235.538 624.234L151.778 600.834L151.24 602.76ZM235 626.16H233V645.96H235H237V626.16H235ZM235 645.96L234.49 644.026L174.85 659.746L175.36 661.68L175.87 663.614L235.51 647.894L235 645.96ZM175.36 661.68L174.829 663.608L234.469 680.048L235 678.12L235.531 676.192L175.891 659.752L175.36 661.68ZM235 678.12L233 678.132L233.12 697.812L235.12 697.8L237.12 697.788L237 678.108L235 678.12ZM235.12 697.8L234.601 695.869L150.721 718.429L151.24 720.36L151.759 722.291L235.639 699.731L235.12 697.8ZM151.24 720.36H153.24V702.36H151.24H149.24V720.36H151.24ZM151.24 702.36L151.683 704.31L216.723 689.55L216.28 687.6L215.837 685.65L150.797 700.41L151.24 702.36ZM216.28 687.6L216.787 685.665L151.747 668.625L151.24 670.56L150.733 672.495L215.773 689.535L216.28 687.6ZM151.24 670.56H153.24V651.84H151.24H149.24V670.56H151.24ZM151.24 651.84L151.723 653.781L216.403 637.701L215.92 635.76L215.437 633.819L150.757 649.899L151.24 651.84ZM215.92 635.76L216.368 633.811L151.688 618.931L151.24 620.88L150.792 622.829L215.472 637.709L215.92 635.76ZM151.24 620.88H153.24V602.76H151.24H149.24V620.88H151.24ZM219.04 534.43L218.386 532.54L217.04 533.006V534.43H219.04ZM219.04 567.79H217.04V569.215L218.386 569.68L219.04 567.79ZM235 573.31H237V571.886L235.654 571.42L235 573.31ZM235 590.95L234.324 592.833L237 593.794V590.95H235ZM151.12 560.83H149.12V562.237L150.444 562.713L151.12 560.83ZM151.12 541.27L150.444 539.388L149.12 539.863V541.27H151.12ZM235 511.15H237V508.307L234.324 509.268L235 511.15ZM235 528.91L235.654 530.8L237 530.335V528.91H235ZM205.6 538.99H207.6V536.182L204.946 537.1L205.6 538.99ZM170.56 551.11L169.906 549.22L164.442 551.11L169.906 553L170.56 551.11ZM205.6 563.23L204.946 565.12L207.6 566.038V563.23H205.6ZM219.04 534.43H217.04V567.79H219.04H221.04V534.43H219.04ZM219.04 567.79L218.386 569.68L234.346 575.2L235 573.31L235.654 571.42L219.694 565.9L219.04 567.79ZM235 573.31H233V590.95H235H237V573.31H235ZM235 590.95L235.676 589.068L151.796 558.948L151.12 560.83L150.444 562.713L234.324 592.833L235 590.95ZM151.12 560.83H153.12V541.27H151.12H149.12V560.83H151.12ZM151.12 541.27L151.796 543.153L235.676 513.033L235 511.15L234.324 509.268L150.444 539.388L151.12 541.27ZM235 511.15H233V528.91H235H237V511.15H235ZM235 528.91L234.346 527.02L218.386 532.54L219.04 534.43L219.694 536.32L235.654 530.8L235 528.91ZM205.6 538.99L204.946 537.1L169.906 549.22L170.56 551.11L171.214 553L206.254 540.88L205.6 538.99ZM170.56 551.11L169.906 553L204.946 565.12L205.6 563.23L206.254 561.34L171.214 549.22L170.56 551.11ZM205.6 563.23H207.6V538.99H205.6H203.6V563.23H205.6ZM151.24 427.292L152.161 425.516L149.24 424.001V427.292H151.24ZM205.84 455.612L204.919 457.387L205.352 457.612H205.84V455.612ZM235 455.612H237V453.612H235V455.612ZM235 472.412V474.412H237V472.412H235ZM205.84 472.412V470.412H205.35L204.916 470.638L205.84 472.412ZM151.24 500.852H149.24V504.149L152.164 502.626L151.24 500.852ZM151.24 481.892L150.389 480.082L149.24 480.622V481.892H151.24ZM189.52 463.892L190.371 465.702L194.233 463.886L190.366 462.08L189.52 463.892ZM151.24 446.012H149.24V447.285L150.394 447.824L151.24 446.012ZM151.24 427.292L150.319 429.067L204.919 457.387L205.84 455.612L206.761 453.836L152.161 425.516L151.24 427.292ZM205.84 455.612V457.612H235V455.612V453.612H205.84V455.612ZM235 455.612H233V472.412H235H237V455.612H235ZM235 472.412V470.412H205.84V472.412V474.412H235V472.412ZM205.84 472.412L204.916 470.638L150.316 499.078L151.24 500.852L152.164 502.626L206.764 474.186L205.84 472.412ZM151.24 500.852H153.24V481.892H151.24H149.24V500.852H151.24ZM151.24 481.892L152.091 483.702L190.371 465.702L189.52 463.892L188.669 462.082L150.389 480.082L151.24 481.892ZM189.52 463.892L190.366 462.08L152.086 444.2L151.24 446.012L150.394 447.824L188.674 465.704L189.52 463.892ZM151.24 446.012H153.24V427.292H151.24H149.24V446.012H151.24ZM230.32 394.323L228.576 393.344L230.32 394.323ZM215.08 409.923L216.09 411.649L216.1 411.643L215.08 409.923ZM170.92 409.923L171.94 408.202L171.93 408.197L170.92 409.923ZM155.56 394.323L153.816 395.301L155.56 394.323ZM155.56 351.123L157.299 352.11L157.304 352.101L155.56 351.123ZM170.92 335.643L171.915 337.378L171.927 337.371L171.94 337.363L170.92 335.643ZM215.08 335.643L214.07 337.369L214.076 337.373L215.08 335.643ZM230.32 351.123L228.576 352.101L230.32 351.123ZM217.48 359.403L219.208 358.395L219.2 358.382L219.192 358.369L217.48 359.403ZM207.64 350.403L208.548 348.621L207.64 350.403ZM178.24 350.403L179.148 352.185L179.155 352.181L179.162 352.178L178.24 350.403ZM168.52 359.403L170.248 360.411L168.52 359.403ZM168.52 386.163L166.784 387.155L166.788 387.163L166.792 387.171L168.52 386.163ZM178.24 395.163L179.162 393.388L179.155 393.384L179.148 393.381L178.24 395.163ZM207.64 395.163L206.732 393.381L207.64 395.163ZM217.48 386.163L219.192 387.197L219.204 387.176L219.216 387.155L217.48 386.163ZM235.84 372.723H233.84C233.84 380.235 232.081 387.096 228.576 393.344L230.32 394.323L232.064 395.301C235.919 388.43 237.84 380.89 237.84 372.723H235.84ZM230.32 394.323L228.576 393.344C225.068 399.597 220.238 404.541 214.06 408.202L215.08 409.923L216.1 411.643C222.882 407.624 228.212 402.169 232.064 395.301L230.32 394.323ZM215.08 409.923L214.07 408.197C207.842 411.842 200.796 413.683 192.88 413.683V415.683V417.683C201.444 417.683 209.198 415.683 216.09 411.649L215.08 409.923ZM192.88 415.683V413.683C185.048 413.683 178.085 411.844 171.94 408.202L170.92 409.923L169.9 411.643C176.715 415.681 184.392 417.683 192.88 417.683V415.683ZM170.92 409.923L171.93 408.197C165.674 404.534 160.808 399.591 157.304 393.344L155.56 394.323L153.816 395.301C157.672 402.175 163.046 407.631 169.91 411.649L170.92 409.923ZM155.56 394.323L157.304 393.344C153.799 387.096 152.04 380.235 152.04 372.723H150.04H148.04C148.04 380.89 149.961 388.43 153.816 395.301L155.56 394.323ZM150.04 372.723H152.04C152.04 365.127 153.801 358.27 157.299 352.11L155.56 351.123L153.821 350.135C149.959 356.935 148.04 364.479 148.04 372.723H150.04ZM155.56 351.123L157.304 352.101C160.806 345.858 165.667 340.959 171.915 337.378L170.92 335.643L169.925 333.908C163.053 337.846 157.674 343.267 153.816 350.144L155.56 351.123ZM170.92 335.643L171.94 337.363C178.085 333.721 185.048 331.883 192.88 331.883V329.883V327.883C184.392 327.883 176.715 329.884 169.9 333.922L170.92 335.643ZM192.88 329.883V331.883C200.796 331.883 207.842 333.723 214.07 337.369L215.08 335.643L216.09 333.917C209.198 329.882 201.444 327.883 192.88 327.883V329.883ZM215.08 335.643L214.076 337.373C220.245 340.952 225.07 345.852 228.576 352.101L230.32 351.123L232.064 350.144C228.21 343.273 222.875 337.853 216.084 333.913L215.08 335.643ZM230.32 351.123L228.576 352.101C232.081 358.35 233.84 365.21 233.84 372.723H235.84H237.84C237.84 364.555 235.919 357.016 232.064 350.144L230.32 351.123ZM220.84 372.723H222.84C222.84 367.377 221.649 362.58 219.208 358.395L217.48 359.403L215.752 360.411C217.791 363.906 218.84 367.989 218.84 372.723H220.84ZM217.48 359.403L219.192 358.369C216.667 354.19 213.099 350.939 208.548 348.621L207.64 350.403L206.732 352.185C210.661 354.186 213.653 356.936 215.768 360.437L217.48 359.403ZM207.64 350.403L208.548 348.621C203.981 346.294 198.74 345.163 192.88 345.163V347.163V349.163C198.22 349.163 202.819 350.191 206.732 352.185L207.64 350.403ZM192.88 347.163V345.163C187.021 345.163 181.813 346.294 177.318 348.628L178.24 350.403L179.162 352.178C182.986 350.192 187.539 349.163 192.88 349.163V347.163ZM178.24 350.403L177.332 348.621C172.775 350.942 169.24 354.2 166.792 358.395L168.52 359.403L170.248 360.411C172.28 356.926 175.225 354.184 179.148 352.185L178.24 350.403ZM168.52 359.403L166.792 358.395C164.351 362.58 163.16 367.377 163.16 372.723H165.16H167.16C167.16 367.989 168.209 363.906 170.248 360.411L168.52 359.403ZM165.16 372.723H163.16C163.16 378.069 164.351 382.899 166.784 387.155L168.52 386.163L170.256 385.171C168.209 381.587 167.16 377.456 167.16 372.723H165.16ZM168.52 386.163L166.792 387.171C169.24 391.366 172.775 394.624 177.332 396.945L178.24 395.163L179.148 393.381C175.225 391.382 172.28 388.64 170.248 385.155L168.52 386.163ZM178.24 395.163L177.318 396.938C181.813 399.272 187.021 400.403 192.88 400.403V398.403V396.403C187.539 396.403 182.986 395.374 179.162 393.388L178.24 395.163ZM192.88 398.403V400.403C198.74 400.403 203.981 399.271 208.548 396.945L207.64 395.163L206.732 393.381C202.819 395.374 198.22 396.403 192.88 396.403V398.403ZM207.64 395.163L208.548 396.945C213.099 394.626 216.667 391.376 219.192 387.197L217.48 386.163L215.768 385.129C213.653 388.63 210.661 391.379 206.732 393.381L207.64 395.163ZM217.48 386.163L219.216 387.155C221.649 382.899 222.84 378.069 222.84 372.723H220.84H218.84C218.84 377.456 217.791 381.587 215.744 385.171L217.48 386.163ZM235 239.744H237V237.744H235V239.744ZM235 256.544L236.104 258.212L237 257.619V256.544H235ZM177.52 294.584L176.416 292.916L170.874 296.584H177.52V294.584ZM235 294.584H237V292.584H235V294.584ZM235 311.384V313.384H237V311.384H235ZM151.12 311.384H149.12V313.384H151.12V311.384ZM151.12 294.584L150.018 292.915L149.12 293.508V294.584H151.12ZM208.72 256.544L209.822 258.213L215.378 254.544H208.72V256.544ZM151.12 256.544H149.12V258.544H151.12V256.544ZM151.12 239.744V237.744H149.12V239.744H151.12ZM235 239.744H233V256.544H235H237V239.744H235ZM235 256.544L233.896 254.876L176.416 292.916L177.52 294.584L178.624 296.252L236.104 258.212L235 256.544ZM177.52 294.584V296.584H235V294.584V292.584H177.52V294.584ZM235 294.584H233V311.384H235H237V294.584H235ZM235 311.384V309.384H151.12V311.384V313.384H235V311.384ZM151.12 311.384H153.12V294.584H151.12H149.12V311.384H151.12ZM151.12 294.584L152.222 296.253L209.822 258.213L208.72 256.544L207.618 254.875L150.018 292.915L151.12 294.584ZM208.72 256.544V254.544H151.12V256.544V258.544H208.72V256.544ZM151.12 256.544H153.12V239.744H151.12H149.12V256.544H151.12ZM151.12 239.744V241.744H235V239.744V237.744H151.12V239.744ZM164.8 200.342H162.8V202.342H164.8V200.342ZM185.8 200.342V202.342H187.8V200.342H185.8ZM185.8 172.142V170.142H183.8V172.142H185.8ZM199.12 172.142H201.12V170.142H199.12V172.142ZM199.12 200.342H197.12V202.342H199.12V200.342ZM221.32 200.342V202.342H223.32V200.342H221.32ZM221.32 168.542V166.542H219.32V168.542H221.32ZM235 168.542H237V166.542H235V168.542ZM235 217.142V219.142H237V217.142H235ZM151.12 217.142H149.12V219.142H151.12V217.142ZM151.12 168.542V166.542H149.12V168.542H151.12ZM164.8 168.542H166.8V166.542H164.8V168.542ZM164.8 200.342V202.342H185.8V200.342V198.342H164.8V200.342ZM185.8 200.342H187.8V172.142H185.8H183.8V200.342H185.8ZM185.8 172.142V174.142H199.12V172.142V170.142H185.8V172.142ZM199.12 172.142H197.12V200.342H199.12H201.12V172.142H199.12ZM199.12 200.342V202.342H221.32V200.342V198.342H199.12V200.342ZM221.32 200.342H223.32V168.542H221.32H219.32V200.342H221.32ZM221.32 168.542V170.542H235V168.542V166.542H221.32V168.542ZM235 168.542H233V217.142H235H237V168.542H235ZM235 217.142V215.142H151.12V217.142V219.142H235V217.142ZM151.12 217.142H153.12V168.542H151.12H149.12V217.142H151.12ZM151.12 168.542V170.542H164.8V168.542V166.542H151.12V168.542ZM164.8 168.542H162.8V200.342H164.8H166.8V168.542H164.8Z" fill="white" fill-opacity="0.4" mask="url(#path-5-outside-3_360_764)"/>
<mask id="path-7-outside-4_360_764" maskUnits="userSpaceOnUse" x="268" y="19" width="90" height="557" fill="black">
<rect fill="white" x="268" y="19" width="90" height="557"/>
<path d="M271.24 455.76L355 479.16V498.96L295.36 514.68L355 531.12L355.12 550.8L271.24 573.36V555.36L336.28 540.6L271.24 523.56V504.84L335.92 488.76L271.24 473.88V455.76ZM339.04 387.43V420.79L355 426.31V443.95L271.12 413.83V394.27L355 364.15V381.91L339.04 387.43ZM325.6 391.99L290.56 404.11L325.6 416.23V391.99ZM271.24 280.292L325.84 308.612H355V325.412H325.84L271.24 353.852V334.892L309.52 316.892L271.24 299.012V280.292ZM355.84 225.723C355.84 233.563 354 240.763 350.32 247.323C346.64 253.883 341.56 259.083 335.08 262.923C328.52 266.763 321.12 268.683 312.88 268.683C304.72 268.683 297.4 266.763 290.92 262.923C284.36 259.083 279.24 253.883 275.56 247.323C271.88 240.763 270.04 233.563 270.04 225.723C270.04 217.803 271.88 210.603 275.56 204.123C279.24 197.563 284.36 192.403 290.92 188.643C297.4 184.803 304.72 182.883 312.88 182.883C321.12 182.883 328.52 184.803 335.08 188.643C341.56 192.403 346.64 197.563 350.32 204.123C354 210.683 355.84 217.883 355.84 225.723ZM340.84 225.723C340.84 220.683 339.72 216.243 337.48 212.403C335.16 208.563 331.88 205.563 327.64 203.403C323.4 201.243 318.48 200.163 312.88 200.163C307.28 200.163 302.4 201.243 298.24 203.403C294 205.563 290.76 208.563 288.52 212.403C286.28 216.243 285.16 220.683 285.16 225.723C285.16 230.763 286.28 235.243 288.52 239.163C290.76 243.003 294 246.003 298.24 248.163C302.4 250.323 307.28 251.403 312.88 251.403C318.48 251.403 323.4 250.323 327.64 248.163C331.88 246.003 335.16 243.003 337.48 239.163C339.72 235.243 340.84 230.763 340.84 225.723ZM355 92.7441V109.544L297.52 147.584H355V164.384H271.12V147.584L328.72 109.544H271.12V92.7441H355ZM284.8 53.3419H305.8V25.1419H319.12V53.3419H341.32V21.5419H355V70.1419H271.12V21.5419H284.8V53.3419Z"/>
</mask>
<path d="M271.24 455.76L271.778 453.834L269.24 453.125V455.76H271.24ZM355 479.16H357V477.642L355.538 477.234L355 479.16ZM355 498.96L355.51 500.894L357 500.501V498.96H355ZM295.36 514.68L294.85 512.746L287.677 514.637L294.829 516.608L295.36 514.68ZM355 531.12L357 531.108L356.991 529.594L355.531 529.192L355 531.12ZM355.12 550.8L355.639 552.731L357.129 552.331L357.12 550.788L355.12 550.8ZM271.24 573.36H269.24V575.969L271.759 575.291L271.24 573.36ZM271.24 555.36L270.797 553.41L269.24 553.763V555.36H271.24ZM336.28 540.6L336.723 542.55L336.787 538.665L336.28 540.6ZM271.24 523.56H269.24V525.104L270.733 525.495L271.24 523.56ZM271.24 504.84L270.757 502.899L269.24 503.276V504.84H271.24ZM335.92 488.76L336.403 490.701L336.368 486.811L335.92 488.76ZM271.24 473.88H269.24V475.472L270.792 475.829L271.24 473.88ZM271.24 455.76L270.702 457.686L354.462 481.086L355 479.16L355.538 477.234L271.778 453.834L271.24 455.76ZM355 479.16H353V498.96H355H357V479.16H355ZM355 498.96L354.49 497.026L294.85 512.746L295.36 514.68L295.87 516.614L355.51 500.894L355 498.96ZM295.36 514.68L294.829 516.608L354.469 533.048L355 531.12L355.531 529.192L295.891 512.752L295.36 514.68ZM355 531.12L353 531.132L353.12 550.812L355.12 550.8L357.12 550.788L357 531.108L355 531.12ZM355.12 550.8L354.601 548.869L270.721 571.429L271.24 573.36L271.759 575.291L355.639 552.731L355.12 550.8ZM271.24 573.36H273.24V555.36H271.24H269.24V573.36H271.24ZM271.24 555.36L271.683 557.31L336.723 542.55L336.28 540.6L335.837 538.65L270.797 553.41L271.24 555.36ZM336.28 540.6L336.787 538.665L271.747 521.625L271.24 523.56L270.733 525.495L335.773 542.535L336.28 540.6ZM271.24 523.56H273.24V504.84H271.24H269.24V523.56H271.24ZM271.24 504.84L271.723 506.781L336.403 490.701L335.92 488.76L335.437 486.819L270.757 502.899L271.24 504.84ZM335.92 488.76L336.368 486.811L271.688 471.931L271.24 473.88L270.792 475.829L335.472 490.709L335.92 488.76ZM271.24 473.88H273.24V455.76H271.24H269.24V473.88H271.24ZM339.04 387.43L338.386 385.54L337.04 386.006V387.43H339.04ZM339.04 420.79H337.04V422.215L338.386 422.68L339.04 420.79ZM355 426.31H357V424.886L355.654 424.42L355 426.31ZM355 443.95L354.324 445.833L357 446.794V443.95H355ZM271.12 413.83H269.12V415.237L270.444 415.713L271.12 413.83ZM271.12 394.27L270.444 392.388L269.12 392.863V394.27H271.12ZM355 364.15H357V361.307L354.324 362.268L355 364.15ZM355 381.91L355.654 383.8L357 383.335V381.91H355ZM325.6 391.99H327.6V389.182L324.946 390.1L325.6 391.99ZM290.56 404.11L289.906 402.22L284.442 404.11L289.906 406L290.56 404.11ZM325.6 416.23L324.946 418.12L327.6 419.038V416.23H325.6ZM339.04 387.43H337.04V420.79H339.04H341.04V387.43H339.04ZM339.04 420.79L338.386 422.68L354.346 428.2L355 426.31L355.654 424.42L339.694 418.9L339.04 420.79ZM355 426.31H353V443.95H355H357V426.31H355ZM355 443.95L355.676 442.068L271.796 411.948L271.12 413.83L270.444 415.713L354.324 445.833L355 443.95ZM271.12 413.83H273.12V394.27H271.12H269.12V413.83H271.12ZM271.12 394.27L271.796 396.153L355.676 366.033L355 364.15L354.324 362.268L270.444 392.388L271.12 394.27ZM355 364.15H353V381.91H355H357V364.15H355ZM355 381.91L354.346 380.02L338.386 385.54L339.04 387.43L339.694 389.32L355.654 383.8L355 381.91ZM325.6 391.99L324.946 390.1L289.906 402.22L290.56 404.11L291.214 406L326.254 393.88L325.6 391.99ZM290.56 404.11L289.906 406L324.946 418.12L325.6 416.23L326.254 414.34L291.214 402.22L290.56 404.11ZM325.6 416.23H327.6V391.99H325.6H323.6V416.23H325.6ZM271.24 280.292L272.161 278.516L269.24 277.001V280.292H271.24ZM325.84 308.612L324.919 310.387L325.352 310.612H325.84V308.612ZM355 308.612H357V306.612H355V308.612ZM355 325.412V327.412H357V325.412H355ZM325.84 325.412V323.412H325.35L324.916 323.638L325.84 325.412ZM271.24 353.852H269.24V357.149L272.164 355.626L271.24 353.852ZM271.24 334.892L270.389 333.082L269.24 333.622V334.892H271.24ZM309.52 316.892L310.371 318.702L314.233 316.886L310.366 315.08L309.52 316.892ZM271.24 299.012H269.24V300.285L270.394 300.824L271.24 299.012ZM271.24 280.292L270.319 282.067L324.919 310.387L325.84 308.612L326.761 306.836L272.161 278.516L271.24 280.292ZM325.84 308.612V310.612H355V308.612V306.612H325.84V308.612ZM355 308.612H353V325.412H355H357V308.612H355ZM355 325.412V323.412H325.84V325.412V327.412H355V325.412ZM325.84 325.412L324.916 323.638L270.316 352.078L271.24 353.852L272.164 355.626L326.764 327.186L325.84 325.412ZM271.24 353.852H273.24V334.892H271.24H269.24V353.852H271.24ZM271.24 334.892L272.091 336.702L310.371 318.702L309.52 316.892L308.669 315.082L270.389 333.082L271.24 334.892ZM309.52 316.892L310.366 315.08L272.086 297.2L271.24 299.012L270.394 300.824L308.674 318.704L309.52 316.892ZM271.24 299.012H273.24V280.292H271.24H269.24V299.012H271.24ZM350.32 247.323L348.576 246.344L350.32 247.323ZM335.08 262.923L336.09 264.649L336.1 264.643L335.08 262.923ZM290.92 262.923L291.94 261.202L291.93 261.197L290.92 262.923ZM275.56 247.323L273.816 248.301L275.56 247.323ZM275.56 204.123L277.299 205.11L277.304 205.101L275.56 204.123ZM290.92 188.643L291.915 190.378L291.927 190.371L291.94 190.363L290.92 188.643ZM335.08 188.643L334.07 190.369L334.076 190.373L335.08 188.643ZM350.32 204.123L348.576 205.101L350.32 204.123ZM337.48 212.403L339.208 211.395L339.2 211.382L339.192 211.369L337.48 212.403ZM327.64 203.403L328.548 201.621L327.64 203.403ZM298.24 203.403L299.148 205.185L299.155 205.181L299.162 205.178L298.24 203.403ZM288.52 212.403L290.248 213.411L288.52 212.403ZM288.52 239.163L286.784 240.155L286.788 240.163L286.792 240.171L288.52 239.163ZM298.24 248.163L299.162 246.388L299.155 246.384L299.148 246.381L298.24 248.163ZM327.64 248.163L326.732 246.381L327.64 248.163ZM337.48 239.163L339.192 240.197L339.204 240.176L339.216 240.155L337.48 239.163ZM355.84 225.723H353.84C353.84 233.235 352.081 240.096 348.576 246.344L350.32 247.323L352.064 248.301C355.919 241.43 357.84 233.89 357.84 225.723H355.84ZM350.32 247.323L348.576 246.344C345.068 252.597 340.238 257.541 334.06 261.202L335.08 262.923L336.1 264.643C342.882 260.624 348.212 255.169 352.064 248.301L350.32 247.323ZM335.08 262.923L334.07 261.197C327.842 264.842 320.796 266.683 312.88 266.683V268.683V270.683C321.444 270.683 329.198 268.683 336.09 264.649L335.08 262.923ZM312.88 268.683V266.683C305.048 266.683 298.085 264.844 291.94 261.202L290.92 262.923L289.9 264.643C296.715 268.681 304.392 270.683 312.88 270.683V268.683ZM290.92 262.923L291.93 261.197C285.674 257.534 280.808 252.591 277.304 246.344L275.56 247.323L273.816 248.301C277.672 255.175 283.046 260.631 289.91 264.649L290.92 262.923ZM275.56 247.323L277.304 246.344C273.799 240.096 272.04 233.235 272.04 225.723H270.04H268.04C268.04 233.89 269.961 241.43 273.816 248.301L275.56 247.323ZM270.04 225.723H272.04C272.04 218.127 273.801 211.27 277.299 205.11L275.56 204.123L273.821 203.135C269.959 209.935 268.04 217.479 268.04 225.723H270.04ZM275.56 204.123L277.304 205.101C280.806 198.858 285.667 193.959 291.915 190.378L290.92 188.643L289.925 186.908C283.053 190.846 277.674 196.267 273.816 203.144L275.56 204.123ZM290.92 188.643L291.94 190.363C298.085 186.721 305.048 184.883 312.88 184.883V182.883V180.883C304.392 180.883 296.715 182.884 289.9 186.922L290.92 188.643ZM312.88 182.883V184.883C320.796 184.883 327.842 186.723 334.07 190.369L335.08 188.643L336.09 186.917C329.198 182.882 321.444 180.883 312.88 180.883V182.883ZM335.08 188.643L334.076 190.373C340.245 193.952 345.07 198.852 348.576 205.101L350.32 204.123L352.064 203.144C348.21 196.273 342.875 190.853 336.084 186.913L335.08 188.643ZM350.32 204.123L348.576 205.101C352.081 211.35 353.84 218.21 353.84 225.723H355.84H357.84C357.84 217.555 355.919 210.016 352.064 203.144L350.32 204.123ZM340.84 225.723H342.84C342.84 220.377 341.649 215.58 339.208 211.395L337.48 212.403L335.752 213.411C337.791 216.906 338.84 220.989 338.84 225.723H340.84ZM337.48 212.403L339.192 211.369C336.667 207.19 333.099 203.939 328.548 201.621L327.64 203.403L326.732 205.185C330.661 207.186 333.653 209.936 335.768 213.437L337.48 212.403ZM327.64 203.403L328.548 201.621C323.981 199.294 318.74 198.163 312.88 198.163V200.163V202.163C318.22 202.163 322.819 203.191 326.732 205.185L327.64 203.403ZM312.88 200.163V198.163C307.021 198.163 301.813 199.294 297.318 201.628L298.24 203.403L299.162 205.178C302.986 203.192 307.539 202.163 312.88 202.163V200.163ZM298.24 203.403L297.332 201.621C292.775 203.942 289.24 207.2 286.792 211.395L288.52 212.403L290.248 213.411C292.28 209.926 295.225 207.184 299.148 205.185L298.24 203.403ZM288.52 212.403L286.792 211.395C284.351 215.58 283.16 220.377 283.16 225.723H285.16H287.16C287.16 220.989 288.209 216.906 290.248 213.411L288.52 212.403ZM285.16 225.723H283.16C283.16 231.069 284.351 235.899 286.784 240.155L288.52 239.163L290.256 238.171C288.209 234.587 287.16 230.456 287.16 225.723H285.16ZM288.52 239.163L286.792 240.171C289.24 244.366 292.775 247.624 297.332 249.945L298.24 248.163L299.148 246.381C295.225 244.382 292.28 241.64 290.248 238.155L288.52 239.163ZM298.24 248.163L297.318 249.938C301.813 252.272 307.021 253.403 312.88 253.403V251.403V249.403C307.539 249.403 302.986 248.374 299.162 246.388L298.24 248.163ZM312.88 251.403V253.403C318.74 253.403 323.981 252.271 328.548 249.945L327.64 248.163L326.732 246.381C322.819 248.374 318.22 249.403 312.88 249.403V251.403ZM327.64 248.163L328.548 249.945C333.099 247.626 336.667 244.376 339.192 240.197L337.48 239.163L335.768 238.129C333.653 241.63 330.661 244.379 326.732 246.381L327.64 248.163ZM337.48 239.163L339.216 240.155C341.649 235.899 342.84 231.069 342.84 225.723H340.84H338.84C338.84 230.456 337.791 234.587 335.744 238.171L337.48 239.163ZM355 92.744H357V90.744H355V92.744ZM355 109.544L356.104 111.212L357 110.619V109.544H355ZM297.52 147.584L296.416 145.916L290.874 149.584H297.52V147.584ZM355 147.584H357V145.584H355V147.584ZM355 164.384V166.384H357V164.384H355ZM271.12 164.384H269.12V166.384H271.12V164.384ZM271.12 147.584L270.018 145.915L269.12 146.508V147.584H271.12ZM328.72 109.544L329.822 111.213L335.378 107.544H328.72V109.544ZM271.12 109.544H269.12V111.544H271.12V109.544ZM271.12 92.744V90.744H269.12V92.744H271.12ZM355 92.744H353V109.544H355H357V92.744H355ZM355 109.544L353.896 107.876L296.416 145.916L297.52 147.584L298.624 149.252L356.104 111.212L355 109.544ZM297.52 147.584V149.584H355V147.584V145.584H297.52V147.584ZM355 147.584H353V164.384H355H357V147.584H355ZM355 164.384V162.384H271.12V164.384V166.384H355V164.384ZM271.12 164.384H273.12V147.584H271.12H269.12V164.384H271.12ZM271.12 147.584L272.222 149.253L329.822 111.213L328.72 109.544L327.618 107.875L270.018 145.915L271.12 147.584ZM328.72 109.544V107.544H271.12V109.544V111.544H328.72V109.544ZM271.12 109.544H273.12V92.744H271.12H269.12V109.544H271.12ZM271.12 92.744V94.744H355V92.744V90.744H271.12V92.744ZM284.8 53.3419H282.8L282.8 55.3419H284.8L284.8 53.3419ZM305.8 53.3419L305.8 55.3419H307.8L307.8 53.3419H305.8ZM305.8 25.1418V23.1418H303.8V25.1418H305.8ZM319.12 25.1418H321.12V23.1418H319.12V25.1418ZM319.12 53.3419H317.12V55.3419H319.12V53.3419ZM341.32 53.3419V55.3419H343.32V53.3419H341.32ZM341.32 21.5419V19.5419H339.32V21.5419H341.32ZM355 21.5419H357V19.5419H355V21.5419ZM355 70.1419V72.1419H357V70.1419H355ZM271.12 70.1419H269.12V72.1419H271.12V70.1419ZM271.12 21.5419V19.5419H269.12V21.5419H271.12ZM284.8 21.5419H286.8V19.5419H284.8V21.5419ZM284.8 53.3419L284.8 55.3419H305.8L305.8 53.3419V51.3419H284.8V53.3419ZM305.8 53.3419H307.8V25.1418H305.8H303.8V53.3419H305.8ZM305.8 25.1418V27.1418H319.12V25.1418V23.1418H305.8V25.1418ZM319.12 25.1418H317.12V53.3419H319.12H321.12V25.1418H319.12ZM319.12 53.3419V55.3419H341.32V53.3419V51.3419H319.12V53.3419ZM341.32 53.3419H343.32V21.5419H341.32H339.32V53.3419H341.32ZM341.32 21.5419V23.5419H355V21.5419V19.5419H341.32V21.5419ZM355 21.5419H353V70.1419H355H357V21.5419H355ZM355 70.1419V68.1419H271.12V70.1419V72.1419H355V70.1419ZM271.12 70.1419H273.12V21.5419H271.12H269.12V70.1419H271.12ZM271.12 21.5419V23.5419H284.8V21.5419V19.5419H271.12V21.5419ZM284.8 21.5419H282.8V53.3419H284.8H286.8V21.5419H284.8Z" fill="white" mask="url(#path-7-outside-4_360_764)"/>
</svg>
